<mxfile host="app.diagrams.net" modified="2023-09-26T20:04:09.719Z" agent="Mozilla/5.0 (Windows NT 10.0; Win64; x64) AppleWebKit/537.36 (KHTML, like Gecko) Chrome/117.0.0.0 Safari/537.36" etag="vUv7dlIskC3hVBzR2bxX" version="21.8.2" type="device">
  <diagram name="Страница — 1" id="z-eLzPuMozAPU7ToVV5o">
    <mxGraphModel dx="1434" dy="790" grid="1" gridSize="10" guides="1" tooltips="1" connect="1" arrows="1" fold="1" page="1" pageScale="1" pageWidth="827" pageHeight="1169" math="0" shadow="0">
      <root>
        <mxCell id="0" />
        <mxCell id="1" parent="0" />
        <mxCell id="ffPJfeWBExSGsFBKZ4g--9" value="&lt;font color=&quot;#000000&quot;&gt;Дозволити программі оновлювати дані про статус води навколо?&lt;/font&gt;" style="strokeWidth=1;shadow=0;dashed=0;align=center;html=1;shape=mxgraph.mockup.containers.rrect;rSize=0;strokeColor=#000000;fontColor=#666666;fontSize=17;verticalAlign=top;whiteSpace=wrap;fillColor=#FFFF99;spacingTop=32;" vertex="1" parent="1">
          <mxGeometry x="250" y="160" width="250" height="140" as="geometry" />
        </mxCell>
        <mxCell id="ffPJfeWBExSGsFBKZ4g--10" value="&lt;font color=&quot;#000000&quot;&gt;Постійне оновлення даних&lt;/font&gt;" style="strokeWidth=1;shadow=0;dashed=0;align=center;html=1;shape=mxgraph.mockup.containers.rrect;rSize=0;fontSize=17;fontColor=#666666;strokeColor=#000000;align=left;spacingLeft=8;fillColor=none;resizeWidth=1;whiteSpace=wrap;" vertex="1" parent="ffPJfeWBExSGsFBKZ4g--9">
          <mxGeometry width="250" height="30" relative="1" as="geometry" />
        </mxCell>
        <mxCell id="ffPJfeWBExSGsFBKZ4g--11" value="?" style="shape=ellipse;strokeColor=#008cff;resizable=0;fillColor=none;html=1;" vertex="1" parent="ffPJfeWBExSGsFBKZ4g--10">
          <mxGeometry x="1" y="0.5" width="20" height="20" relative="1" as="geometry">
            <mxPoint x="-25" y="-10" as="offset" />
          </mxGeometry>
        </mxCell>
        <mxCell id="ffPJfeWBExSGsFBKZ4g--12" value="&lt;font color=&quot;#000000&quot;&gt;Ні&lt;/font&gt;" style="strokeWidth=1;shadow=0;dashed=0;align=center;html=1;shape=mxgraph.mockup.containers.rrect;rSize=0;fontSize=16;fontColor=#666666;strokeColor=#000000;whiteSpace=wrap;fillColor=none;" vertex="1" parent="ffPJfeWBExSGsFBKZ4g--9">
          <mxGeometry x="0.25" y="1" width="90" height="25" relative="1" as="geometry">
            <mxPoint x="-45" y="-33" as="offset" />
          </mxGeometry>
        </mxCell>
        <mxCell id="ffPJfeWBExSGsFBKZ4g--13" value="&lt;font color=&quot;#000000&quot;&gt;Так&lt;/font&gt;" style="strokeWidth=1;shadow=0;dashed=0;align=center;html=1;shape=mxgraph.mockup.containers.rrect;rSize=0;fontSize=16;fontColor=#666666;strokeColor=#000000;whiteSpace=wrap;fillColor=#66B2FF;" vertex="1" parent="ffPJfeWBExSGsFBKZ4g--9">
          <mxGeometry x="0.75" y="1" width="90" height="25" relative="1" as="geometry">
            <mxPoint x="-45" y="-33" as="offset" />
          </mxGeometry>
        </mxCell>
      </root>
    </mxGraphModel>
  </diagram>
</mxfile>
